HIERARCHY
ROOT Hips
{
	OFFSET 0.000000 71.427986 0.000000
	CHANNELS 6 Xposition Yposition Zposition Xrotation Yrotation Zrotation
	JOINT Pelvis
	{
		OFFSET 0.000000 0.000000 0.000000
		CHANNELS 3 Xrotation Yrotation Zrotation
		JOINT LeftUpLeg
		{
			OFFSET 6.797100 -2.508499 -1.318700
			CHANNELS 3 Xrotation Yrotation Zrotation
			JOINT LeftLeg
			{
				OFFSET 0.069008 -29.241863 0.690200
				CHANNELS 3 Xrotation Yrotation Zrotation
				JOINT LeftFoot
				{
					OFFSET -0.069008 -29.568123 -0.266800
					CHANNELS 3 Xrotation Yrotation Zrotation
					JOINT LeftToeBase
					{
						OFFSET 3.145500 -8.631000 16.059900
						CHANNELS 3 Xrotation Yrotation Zrotation
						End Site
						{
							OFFSET 0.000000 18.501587 0.000000
						}
					}
				}
			}
			JOINT Left_ShortSleeve
			{
				OFFSET 0.265923 -10.480953 1.153800
				CHANNELS 3 Xrotation Yrotation Zrotation
				End Site
				{
					OFFSET 1.725763 19.823879 0.000000
				}
			}
		}
		JOINT RightUpLeg
		{
			OFFSET -6.797100 -2.508499 -1.318700
			CHANNELS 3 Xrotation Yrotation Zrotation
			JOINT RightLeg
			{
				OFFSET -0.082453 -29.241932 0.688000
				CHANNELS 3 Xrotation Yrotation Zrotation
				JOINT RightFoot
				{
					OFFSET 0.082453 -29.568058 -0.264600
					CHANNELS 3 Xrotation Yrotation Zrotation
					JOINT RightToeBase
					{
						OFFSET -3.115300 -8.682800 16.113400
						CHANNELS 3 Xrotation Yrotation Zrotation
						End Site
						{
							OFFSET 0.000000 18.567114 0.000000
						}
					}
				}
			}
			JOINT Right_ShortSleeve
			{
				OFFSET -0.265923 -10.480953 1.153800
				CHANNELS 3 Xrotation Yrotation Zrotation
				End Site
				{
					OFFSET -1.725766 19.823910 0.000000
				}
			}
		}
	}
	JOINT Spine
	{
		OFFSET 0.000000 13.368103 0.470500
		CHANNELS 3 Xrotation Yrotation Zrotation
		JOINT Spine1
		{
			OFFSET 0.147000 13.837402 0.538800
			CHANNELS 3 Xrotation Yrotation Zrotation
			JOINT Spine2
			{
				OFFSET 0.168000 16.242897 -1.435500
				CHANNELS 3 Xrotation Yrotation Zrotation
				JOINT Neck
				{
					OFFSET 0.217200 18.631500 -1.679100
					CHANNELS 3 Xrotation Yrotation Zrotation
					JOINT Head
					{
						OFFSET 0.000000 6.599396 1.385900
						CHANNELS 3 Xrotation Yrotation Zrotation
						JOINT Hat
						{
							OFFSET -0.532200 27.220596 -10.096100
							CHANNELS 3 Xrotation Yrotation Zrotation
							End Site
							{
								OFFSET 0.000000 22.029861 0.000000
							}
						}
						JOINT HairD
						{
							OFFSET -10.777400 17.437393 -1.325900
							CHANNELS 3 Xrotation Yrotation Zrotation
							JOINT HairD1
							{
								OFFSET -3.290299 -11.051193 1.062200
								CHANNELS 3 Xrotation Yrotation Zrotation
								End Site
								{
									OFFSET 0.000000 11.579437 0.000000
								}
							}
						}
						JOINT HairB
						{
							OFFSET -10.777400 17.437393 1.467900
							CHANNELS 3 Xrotation Yrotation Zrotation
							JOINT HairB1
							{
								OFFSET -1.561200 -12.956299 3.590200
								CHANNELS 3 Xrotation Yrotation Zrotation
								End Site
								{
									OFFSET 0.000000 13.534866 0.000000
								}
							}
						}
						JOINT HairA
						{
							OFFSET 9.713100 17.437393 1.467900
							CHANNELS 3 Xrotation Yrotation Zrotation
							JOINT HairA1
							{
								OFFSET 1.561200 -12.956299 3.590200
								CHANNELS 3 Xrotation Yrotation Zrotation
								End Site
								{
									OFFSET 0.000000 13.534866 0.000000
								}
							}
						}
						JOINT HairC
						{
							OFFSET 9.713100 17.437393 -1.325900
							CHANNELS 3 Xrotation Yrotation Zrotation
							JOINT HairC1
							{
								OFFSET 3.290300 -11.051193 1.062200
								CHANNELS 3 Xrotation Yrotation Zrotation
								End Site
								{
									OFFSET 0.000000 11.579437 0.000000
								}
							}
						}
					}
				}
				JOINT LeftShoulder
				{
					OFFSET 5.101800 15.108002 -2.763700
					CHANNELS 3 Xrotation Yrotation Zrotation
					JOINT LeftArm
					{
						OFFSET 9.825497 2.506317 -1.597400
						CHANNELS 3 Xrotation Yrotation Zrotation
						JOINT LeftForeArm
						{
							OFFSET 21.966244 0.000000 0.000000
							CHANNELS 3 Xrotation Yrotation Zrotation
							JOINT LeftHand
							{
								OFFSET 33.879036 0.000000 0.000000
								CHANNELS 3 Xrotation Yrotation Zrotation
								JOINT LeftHandThumb1
								{
									OFFSET 6.715286 -2.359680 3.363841
									CHANNELS 3 Xrotation Yrotation Zrotation
									JOINT LeftHandThumb2
									{
										OFFSET 2.507072 -1.447464 1.447461
										CHANNELS 3 Xrotation Yrotation Zrotation
										JOINT LeftHandThumb3
										{
											OFFSET 2.898338 -1.673355 1.673357
											CHANNELS 3 Xrotation Yrotation Zrotation
											End Site
											{
												OFFSET -0.295959 3.727692 -0.131651
											}
										}
									}
								}
								JOINT LeftHandIndex1
								{
									OFFSET 14.190811 -0.254547 3.840278
									CHANNELS 3 Xrotation Yrotation Zrotation
									JOINT LeftHandIndex2
									{
										OFFSET 3.551727 0.000000 -0.000000
										CHANNELS 3 Xrotation Yrotation Zrotation
										JOINT LeftHandIndex3
										{
											OFFSET 2.894196 0.000000 0.000000
											CHANNELS 3 Xrotation Yrotation Zrotation
											End Site
											{
												OFFSET -1.000603 2.690872 0.366626
											}
										}
									}
								}
								JOINT LeftHandMiddle1
								{
									OFFSET 13.776489 0.000000 0.000000
									CHANNELS 3 Xrotation Yrotation Zrotation
									JOINT LeftHandMiddle2
									{
										OFFSET 3.438232 0.000000 0.000000
										CHANNELS 3 Xrotation Yrotation Zrotation
										JOINT LeftHandMiddle3
										{
											OFFSET 3.691551 0.000000 0.000000
											CHANNELS 3 Xrotation Yrotation Zrotation
											End Site
											{
												OFFSET -1.082298 3.499527 0.457670
											}
										}
									}
								}
								JOINT LeftHandRing1
								{
									OFFSET 13.966164 -0.268127 -3.067488
									CHANNELS 3 Xrotation Yrotation Zrotation
									JOINT LeftHandRing2
									{
										OFFSET 3.162567 0.000000 0.000000
										CHANNELS 3 Xrotation Yrotation Zrotation
										JOINT LeftHandRing3
										{
											OFFSET 3.324348 0.000000 0.000000
											CHANNELS 3 Xrotation Yrotation Zrotation
											End Site
											{
												OFFSET -0.861900 3.184998 0.405154
											}
										}
									}
								}
								JOINT LeftHandPinky1
								{
									OFFSET 13.131393 -0.168503 -5.746925
									CHANNELS 3 Xrotation Yrotation Zrotation
									JOINT LeftHandPinky2
									{
										OFFSET 2.849182 0.000000 0.000000
										CHANNELS 3 Xrotation Yrotation Zrotation
										JOINT LeftHandPinky3
										{
											OFFSET 2.805038 0.000000 0.000000
											CHANNELS 3 Xrotation Yrotation Zrotation
											End Site
											{
												OFFSET -0.882500 2.642609 0.325652
											}
										}
									}
								}
							}
							JOINT Left_Sleeve
							{
								OFFSET 6.592125 -0.646545 0.805568
								CHANNELS 3 Xrotation Yrotation Zrotation
								End Site
								{
									OFFSET -0.000179 20.275787 -0.000000
								}
							}
						}
					}
				}
				JOINT RightShoulder
				{
					OFFSET -5.731700 15.108002 -2.763700
					CHANNELS 3 Xrotation Yrotation Zrotation
					JOINT RightArm
					{
						OFFSET -9.825497 2.506317 -1.597400
						CHANNELS 3 Xrotation Yrotation Zrotation
						JOINT RightForeArm
						{
							OFFSET -21.966242 0.000000 0.000000
							CHANNELS 3 Xrotation Yrotation Zrotation
							JOINT RightHand
							{
								OFFSET -33.879032 0.000000 0.000000
								CHANNELS 3 Xrotation Yrotation Zrotation
								JOINT RightHandThumb1
								{
									OFFSET -6.715286 -2.359680 3.363841
									CHANNELS 3 Xrotation Yrotation Zrotation
									JOINT RightHandThumb2
									{
										OFFSET -2.507072 -1.447464 1.447461
										CHANNELS 3 Xrotation Yrotation Zrotation
										JOINT RightHandThumb3
										{
											OFFSET -2.898338 -1.673355 1.673357
											CHANNELS 3 Xrotation Yrotation Zrotation
											End Site
											{
												OFFSET 0.295959 3.727692 -0.131651
											}
										}
									}
								}
								JOINT RightHandIndex1
								{
									OFFSET -14.190811 -0.254547 3.840278
									CHANNELS 3 Xrotation Yrotation Zrotation
									JOINT RightHandIndex2
									{
										OFFSET -3.551727 0.000000 -0.000000
										CHANNELS 3 Xrotation Yrotation Zrotation
										JOINT RightHandIndex3
										{
											OFFSET -2.894196 0.000000 0.000000
											CHANNELS 3 Xrotation Yrotation Zrotation
											End Site
											{
												OFFSET 1.000603 2.690872 0.366626
											}
										}
									}
								}
								JOINT RightHandMiddle1
								{
									OFFSET -13.776489 0.000000 0.000000
									CHANNELS 3 Xrotation Yrotation Zrotation
									JOINT RightHandMiddle2
									{
										OFFSET -3.438232 0.000000 0.000000
										CHANNELS 3 Xrotation Yrotation Zrotation
										JOINT RightHandMiddle3
										{
											OFFSET -3.691551 0.000000 0.000000
											CHANNELS 3 Xrotation Yrotation Zrotation
											End Site
											{
												OFFSET 1.082298 3.499527 0.457670
											}
										}
									}
								}
								JOINT RightHandRing1
								{
									OFFSET -13.966164 -0.268127 -3.067488
									CHANNELS 3 Xrotation Yrotation Zrotation
									JOINT RightHandRing2
									{
										OFFSET -3.162567 0.000000 0.000000
										CHANNELS 3 Xrotation Yrotation Zrotation
										JOINT RightHandRing3
										{
											OFFSET -3.324348 0.000000 0.000000
											CHANNELS 3 Xrotation Yrotation Zrotation
											End Site
											{
												OFFSET 0.861900 3.184998 0.405154
											}
										}
									}
								}
								JOINT RightHandPinky1
								{
									OFFSET -13.131393 -0.168503 -5.746925
									CHANNELS 3 Xrotation Yrotation Zrotation
									JOINT RightHandPinky2
									{
										OFFSET -2.849182 0.000000 0.000000
										CHANNELS 3 Xrotation Yrotation Zrotation
										JOINT RightHandPinky3
										{
											OFFSET -2.805038 0.000000 0.000000
											CHANNELS 3 Xrotation Yrotation Zrotation
											End Site
											{
												OFFSET 0.882500 2.642609 0.325652
											}
										}
									}
								}
							}
							JOINT Right_Sleeve
							{
								OFFSET -6.592125 -0.646545 0.805568
								CHANNELS 3 Xrotation Yrotation Zrotation
								End Site
								{
									OFFSET 0.000179 20.275787 -0.000000
								}
							}
						}
					}
				}
				JOINT Bind_Right_JacketString
				{
					OFFSET -3.534800 11.969597 7.200700
					CHANNELS 3 Xrotation Yrotation Zrotation
					JOINT Bind_Right_JacketString1
					{
						OFFSET -0.319900 -6.102600 2.794100
						CHANNELS 3 Xrotation Yrotation Zrotation
						End Site
						{
							OFFSET 0.000000 6.719452 0.000000
						}
					}
				}
				JOINT Bind_Left_JacketString
				{
					OFFSET 2.904800 11.969597 7.200700
					CHANNELS 3 Xrotation Yrotation Zrotation
					JOINT Bind_Left_JacketString1
					{
						OFFSET 0.364800 -5.904503 3.186800
						CHANNELS 3 Xrotation Yrotation Zrotation
						End Site
						{
							OFFSET 0.000000 6.719513 0.000000
						}
					}
				}
				JOINT HairE
				{
					OFFSET 5.915200 17.612701 -11.592200
					CHANNELS 3 Xrotation Yrotation Zrotation
					JOINT HairE1
					{
						OFFSET 0.289200 -7.171898 -1.284500
						CHANNELS 3 Xrotation Yrotation Zrotation
						End Site
						{
							OFFSET 0.000000 7.291756 0.000000
						}
					}
				}
				JOINT HairF
				{
					OFFSET -0.864800 17.612701 -11.592200
					CHANNELS 3 Xrotation Yrotation Zrotation
					JOINT HairF1
					{
						OFFSET 0.000000 -14.087097 -2.127501
						CHANNELS 3 Xrotation Yrotation Zrotation
						End Site
						{
							OFFSET 0.000000 14.246841 0.000000
						}
					}
				}
				JOINT HairG
				{
					OFFSET -8.087700 17.612701 -11.592200
					CHANNELS 3 Xrotation Yrotation Zrotation
					JOINT HairG1
					{
						OFFSET -0.293600 -6.081398 -0.910100
						CHANNELS 3 Xrotation Yrotation Zrotation
						End Site
						{
							OFFSET 0.000000 6.156120 0.000000
						}
					}
				}
			}
		}
	}
	JOINT Pouch
	{
		OFFSET 0.000000 4.394501 10.847300
		CHANNELS 3 Xrotation Yrotation Zrotation
		End Site
		{
			OFFSET 0.000000 21.880577 0.000000
		}
	}
	JOINT Bag
	{
		OFFSET -13.229000 4.813004 -0.593300
		CHANNELS 3 Xrotation Yrotation Zrotation
		End Site
		{
			OFFSET 0.000000 21.880577 0.000000
		}
	}
	JOINT OccupyGuyFacialAnim_Joint
	{
		OFFSET 1.000000 -70.206398 -1.655000
		CHANNELS 3 Xrotation Yrotation Zrotation
		End Site
		{
			OFFSET 0.000000 21.880577 0.000000
		}
	}
}
MOTION
Frames: 4
Frame Time: 0.033333
-3.477987 69.731407 250.618576 -352.491747 161.930111 -3.718365 0.000001 0.000001 0.000000 2.428389 8.256748 -3.020620 24.066667 -6.199950 -0.353692 -18.535883 -1.390077 7.316470 0.000000 -0.000002 0.000000 -0.000001 -0.000001 -0.000000 -15.697720 0.209897 2.913791 29.096493 -21.707268 -1.421403 -11.141169 -0.678998 6.031425 0.000000 0.000001 -0.000000 -0.000001 0.000000 -0.000000 2.582889 0.900150 -0.018491 5.164947 1.817578 0.010861 5.164947 1.817579 0.010861 3.781407 -2.634134 -1.730835 -7.005418 0.076150 7.361295 0.000000 0.000002 -0.000001 0.000000 0.000002 -0.000001 0.000000 0.000002 -0.000001 0.000000 0.000002 -0.000001 0.000000 0.000000 -0.000000 0.000000 0.000002 -0.000001 0.000000 0.000000 -0.000000 0.000000 0.000002 -0.000001 0.000000 0.000002 -0.000001 0.723843 -7.953421 -6.245915 59.447453 -20.950678 -52.221055 100.413275 -97.945398 97.060922 22.299944 -26.754643 59.475532 -27.308980 -3.317752 18.387960 7.638686 17.969027 10.700604 -0.000000 -0.000003 0.000001 31.519691 -6.430362 -39.888581 2.352982 -0.931450 -0.085032 -0.000000 0.000003 -0.000003 29.064767 3.171539 -41.595961 5.229581 -0.371930 -0.033746 0.000000 0.000000 0.000002 23.854613 12.909765 -41.793822 5.177031 3.485378 0.000239 0.000002 0.000003 -0.000005 2.233053 22.791701 -0.424075 9.262233 4.579394 -40.594164 -0.000003 0.000002 -0.000000 0.000001 0.000000 -0.000000 0.648652 12.445049 8.913913 -47.713905 10.138361 48.566583 -147.737156 40.527283 173.472557 15.176598 24.419451 -52.418847 1.597827 0.343277 2.572424 1.238839 -15.612800 -9.936846 0.000000 -0.000001 -0.000001 0.164220 -5.184909 4.282554 1.843398 0.346724 13.680397 0.000000 0.000001 -0.000001 -6.266670 -1.997598 3.989410 6.534664 -1.844882 56.162163 0.000003 0.000001 -0.000001 -7.138825 -3.481817 21.242247 13.666337 -2.333227 124.298569 -0.000001 0.000002 0.000005 -11.229631 -21.953075 22.361051 15.127944 -4.312342 110.722038 -0.000001 0.000001 -0.000003 0.000001 -0.000000 0.000003 -0.000000 -0.000000 -0.000000 -0.000000 -0.000000 -0.000000 -0.000000 -0.000000 -0.000000 -0.000000 -0.000000 -0.000000 -0.000000 -0.000000 -0.000000 -0.000000 -0.000000 -0.000000 -0.000000 -0.000000 -0.000000 -0.000000 -0.000000 -0.000000 -0.000000 -0.000000 -0.000000 -0.000000 -0.000000 -0.000000 0.000001 0.000001 0.000000 0.000001 0.000001 0.000000 0.000001 0.000001 0.000000 
-3.255923 69.693085 249.997925 -352.327003 163.953965 -3.325395 -0.000000 0.000000 -0.000000 3.359039 8.304958 -2.852102 23.857067 -8.317982 -0.462966 -18.750799 -1.477148 7.659298 0.000000 -0.000001 0.000000 0.000000 0.000000 0.000001 -17.435943 0.513698 3.329299 28.107482 -18.880803 -1.251707 -9.847975 -0.454346 4.653704 0.000000 -0.000003 -0.000000 -0.000000 -0.000000 -0.000000 2.742280 0.891039 0.023881 5.484382 1.807729 0.039749 5.484379 1.807736 0.039748 3.713626 -2.616872 -1.944582 -7.010618 -0.011923 7.558684 0.000000 0.000001 -0.000001 0.000000 0.000001 -0.000001 0.000000 0.000001 -0.000000 0.000000 0.000001 -0.000001 -0.000000 0.000001 -0.000000 0.000000 0.000001 -0.000001 -0.000000 0.000001 -0.000000 0.000000 0.000001 -0.000001 0.000000 0.000001 -0.000001 0.709433 -7.800957 -6.501369 59.013934 -20.635501 -52.614160 103.077165 -97.306638 99.732148 22.491164 -27.248333 59.584296 -27.308975 -3.317759 18.387954 7.638709 17.969036 10.700580 0.000001 -0.000000 -0.000003 31.723770 -6.222053 -39.823882 2.352979 -0.931444 -0.085021 -0.000000 -0.000002 -0.000004 29.226550 3.348550 -41.652256 5.229548 -0.371908 -0.033751 0.000000 0.000001 0.000001 23.952092 12.990031 -41.496442 5.213995 3.475001 -0.007127 0.000001 -0.000003 -0.000002 2.217601 22.858405 -0.837130 9.208944 4.624651 -39.954762 -0.000003 -0.000004 0.000002 -0.000003 0.000000 -0.000001 0.668914 12.602698 8.673327 -47.741902 10.008793 48.530898 -147.983739 40.503937 173.642697 15.163686 24.334547 -52.565358 1.597828 0.343277 2.572425 1.238838 -15.612798 -9.936848 0.000001 -0.000001 0.000002 0.164221 -5.184911 4.282553 1.843397 0.346727 13.680401 0.000000 0.000001 0.000002 -6.266668 -1.997601 3.989412 6.534661 -1.844881 56.162163 -0.000000 0.000001 -0.000001 -7.138825 -3.481816 21.242242 13.666338 -2.333225 124.298569 0.000002 -0.000001 -0.000005 -11.229628 -21.953072 22.361051 15.127942 -4.312340 110.722038 -0.000000 0.000001 -0.000001 -0.000000 -0.000000 -0.000001 -0.000001 0.000000 0.000000 -0.000001 0.000000 -0.000000 -0.000001 0.000000 0.000000 -0.000001 0.000000 0.000000 -0.000001 0.000000 0.000000 -0.000001 0.000000 0.000000 -0.000001 0.000000 0.000000 -0.000001 0.000000 0.000000 -0.000001 0.000000 0.000000 -0.000001 0.000000 0.000000 -0.000000 0.000000 -0.000000 -0.000000 0.000000 -0.000000 -0.000000 0.000000 -0.000000 
-3.001552 69.654083 249.343811 -352.272471 165.653712 -2.919438 -0.000000 0.000001 -0.000000 4.299343 8.411791 -2.687455 23.477884 -10.161625 -0.556243 -19.006176 -1.544764 7.867816 -0.000000 -0.000000 0.000000 -0.000000 0.000000 -0.000002 -19.136088 0.775568 3.690607 27.018618 -15.527598 -1.043475 -9.182090 -0.311430 3.560548 0.000001 0.000002 0.000001 -0.000000 -0.000001 -0.000001 2.878509 0.876804 0.074812 5.757400 1.785917 0.083214 5.757400 1.785909 0.083215 3.635261 -2.576429 -2.187713 -6.902149 -0.009094 7.628001 0.000000 0.000000 0.000000 0.000000 0.000000 0.000000 0.000000 0.000000 0.000000 0.000000 0.000000 -0.000000 -0.000000 0.000000 0.000000 0.000000 0.000000 -0.000000 -0.000000 0.000000 0.000000 0.000000 0.000000 0.000000 0.000000 0.000000 0.000000 0.697491 -7.744468 -6.782969 58.677650 -20.454499 -52.849593 105.556298 -96.961434 102.216390 22.768125 -27.620851 59.865877 -27.308971 -3.317768 18.387962 7.638723 17.969041 10.700594 0.000000 0.000003 -0.000001 31.953838 -5.986354 -39.758593 2.352956 -0.931435 -0.085041 -0.000000 0.000004 0.000002 29.411846 3.551328 -41.713239 5.229558 -0.371929 -0.033747 0.000001 0.000001 -0.000004 24.097580 13.116846 -41.389130 5.232012 3.467757 -0.266306 0.000000 0.000000 0.000002 2.228349 22.956862 -1.214898 9.161751 4.663922 -39.393977 0.000001 0.000002 -0.000004 -0.000000 0.000000 0.000001 0.697355 12.682857 8.337439 -47.720268 9.930465 48.556986 -148.048284 40.478283 173.692844 15.143405 24.269904 -52.669573 1.597830 0.343280 2.572426 1.238838 -15.612798 -9.936848 0.000001 0.000000 -0.000000 0.164221 -5.184907 4.282552 1.843398 0.346729 13.680397 -0.000000 -0.000000 -0.000003 -6.266668 -1.997598 3.989412 6.534664 -1.844878 56.162159 -0.000001 -0.000001 0.000001 -7.138824 -3.481815 21.242247 13.666338 -2.333223 124.298569 0.000000 0.000001 0.000004 -11.229628 -21.953073 22.361052 15.127940 -4.312340 110.722038 -0.000001 0.000002 0.000002 -0.000001 0.000000 0.000001 -0.000000 0.000000 -0.000000 -0.000000 -0.000000 0.000000 -0.000000 0.000000 -0.000000 -0.000000 0.000000 -0.000000 -0.000000 0.000000 -0.000000 -0.000000 -0.000000 0.000000 -0.000000 0.000000 -0.000000 -0.000000 0.000000 -0.000000 -0.000000 0.000000 -0.000000 -0.000000 -0.000000 0.000000 -0.000000 0.000001 -0.000000 -0.000000 0.000001 -0.000000 -0.000000 0.000001 -0.000000 
-2.723029 69.621429 248.635971 -352.375361 167.041661 -2.559897 0.000001 0.000001 -0.000000 5.281729 8.496491 -2.525737 22.835303 -11.618377 -0.627612 -19.319902 -1.612727 8.003850 0.000000 -0.000001 -0.000000 -0.000000 0.000000 -0.000000 -20.890861 0.776056 4.122522 26.098295 -12.455240 -0.855298 -9.601088 -0.282737 2.881828 -0.000000 -0.000003 -0.000000 -0.000000 0.000001 0.000000 2.959244 0.853312 0.127839 5.919373 1.742727 0.130692 5.919374 1.742727 0.130693 3.653460 -2.510391 -2.333281 -6.614583 0.155157 7.567867 -0.000000 0.000001 0.000000 -0.000000 0.000001 0.000000 -0.000000 0.000001 0.000000 -0.000000 0.000001 0.000000 -0.000000 -0.000000 0.000000 -0.000000 0.000001 0.000000 -0.000000 -0.000000 0.000000 -0.000000 0.000001 0.000000 -0.000000 0.000001 0.000000 0.689655 -7.734146 -6.978451 58.519504 -20.399210 -52.974554 107.296432 -96.869424 103.954680 23.020389 -27.878326 60.188057 -27.308966 -3.317745 18.387952 7.638690 17.969034 10.700600 0.000000 -0.000000 0.000002 32.188076 -5.747190 -39.708220 2.352974 -0.931436 -0.085044 -0.000002 0.000004 0.000001 29.600834 3.757206 -41.785325 5.229566 -0.371930 -0.033775 0.000001 -0.000001 0.000004 24.274067 13.282613 -41.579948 5.223522 3.467809 -0.104815 0.000002 0.000000 -0.000000 2.233800 23.055852 -1.632141 9.108775 4.707111 -38.769318 -0.000002 0.000001 0.000001 -0.000001 0.000001 -0.000000 0.714492 12.721379 8.132993 -47.500790 9.981091 48.564752 -147.911080 40.424635 173.615773 15.125032 24.183769 -52.775810 1.597829 0.343280 2.572426 1.238840 -15.612802 -9.936844 -0.000000 -0.000001 0.000002 0.164222 -5.184909 4.282553 1.843399 0.346727 13.680399 -0.000001 -0.000001 0.000000 -6.266669 -1.997594 3.989410 6.534665 -1.844877 56.162159 -0.000000 0.000002 0.000003 -7.138825 -3.481814 21.242247 13.666337 -2.333228 124.298569 -0.000001 -0.000002 0.000001 -11.229626 -21.953072 22.361049 15.127944 -4.312339 110.722038 -0.000001 -0.000001 0.000002 -0.000000 -0.000001 0.000002 0.000001 0.000001 -0.000000 0.000001 -0.000000 -0.000000 0.000001 0.000001 -0.000000 0.000001 0.000001 -0.000000 0.000001 0.000001 -0.000000 0.000001 -0.000000 -0.000000 0.000001 0.000001 -0.000000 0.000001 0.000001 -0.000000 0.000001 0.000001 -0.000000 0.000001 -0.000000 -0.000000 0.000001 0.000001 -0.000000 0.000001 0.000001 -0.000000 0.000001 0.000001 -0.000000 
